<svg xmlns="http://www.w3.org/2000/svg" width="25" height="25" viewBox="0 0 45 45">
  <path id="Icon_awesome-youtube-square" data-name="Icon awesome-youtube-square" d="M18.763,19.336l9.563,5.434L18.763,30.2ZM45,7.071V42.429a4.823,4.823,0,0,1-4.821,4.821H4.821A4.823,4.823,0,0,1,0,42.429V7.071A4.823,4.823,0,0,1,4.821,2.25H40.179A4.823,4.823,0,0,1,45,7.071ZM40.781,24.78s0-5.987-.763-8.859a4.585,4.585,0,0,0-3.234-3.254c-2.843-.773-14.283-.773-14.283-.773s-11.441,0-14.283.773a4.585,4.585,0,0,0-3.234,3.254c-.763,2.863-.763,8.859-.763,8.859s0,5.987.763,8.859a4.519,4.519,0,0,0,3.234,3.2c2.843.763,14.283.763,14.283.763s11.441,0,14.283-.773a4.519,4.519,0,0,0,3.234-3.2c.763-2.863.763-8.849.763-8.849Z" transform="translate(0 -2.25)" fill="#fff"/>
</svg>
