<svg xmlns="http://www.w3.org/2000/svg" width="25" height="25" viewBox="0 0 45 45">
  <path id="Icon_awesome-twitter-square" data-name="Icon awesome-twitter-square" d="M40.179,2.25H4.821A4.823,4.823,0,0,0,0,7.071V42.429A4.823,4.823,0,0,0,4.821,47.25H40.179A4.823,4.823,0,0,0,45,42.429V7.071A4.823,4.823,0,0,0,40.179,2.25ZM35.267,18.2c.02.281.02.573.02.854,0,8.709-6.629,18.743-18.743,18.743A18.657,18.657,0,0,1,6.429,34.845a13.879,13.879,0,0,0,1.587.08,13.208,13.208,0,0,0,8.176-2.813,6.6,6.6,0,0,1-6.157-4.57,7.1,7.1,0,0,0,2.973-.121,6.588,6.588,0,0,1-5.273-6.469v-.08a6.583,6.583,0,0,0,2.973.834,6.574,6.574,0,0,1-2.933-5.484A6.506,6.506,0,0,1,8.669,12.9a18.7,18.7,0,0,0,13.58,6.891,6.6,6.6,0,0,1,11.24-6.017,12.909,12.909,0,0,0,4.179-1.587,6.571,6.571,0,0,1-2.893,3.626,13.11,13.11,0,0,0,3.8-1.025A13.867,13.867,0,0,1,35.267,18.2Z" transform="translate(0 -2.25)" fill="#fff"/>
</svg>
